<svg width="206" height="152" viewBox="0 0 206 152" fill="none" xmlns="http://www.w3.org/2000/svg">
<g clip-path="url(#clip0_921_20925)">
<path d="M28.3309 133.348C28.3309 133.348 23.4108 114.164 21.8422 106.616C20.2736 99.0676 20.3445 97.9322 20.3445 97.9322C20.3445 97.9322 28.4632 110.879 32.999 116.894C37.5346 122.91 38.4795 124.55 38.4795 124.55L28.3309 133.348Z" fill="#37664A"/>
<path d="M20.0784 144.628C20.0784 144.628 17.5016 132.581 11.9579 126.231C6.41418 119.882 0.240479 119.251 0.240479 119.251C0.240479 119.251 5.33577 116.224 12.9936 121.017C20.6515 125.811 25.307 134.129 25.307 134.129C25.307 134.129 18.1316 122.863 17.3756 115.885C16.6197 108.907 16.4585 106.745 16.4585 106.745C16.4585 106.745 21.0905 116.602 24.4618 120.513C27.8331 124.423 35.435 131.736 35.435 131.736C35.435 131.736 23.0332 145.153 20.0784 144.628Z" fill="#99B746"/>
<path d="M195.895 70.4741H184.626L164.786 29.439L169.522 20.4577L195.895 70.4741Z" fill="#5B1727"/>
<path d="M169.521 11.3669L165.531 19.0892L160.965 27.9247L155.693 38.1225L150.406 48.3557L138.975 70.4741H23.4429V67.717L33.7749 48.3557L39.238 38.1225L44.6859 27.9247L49.3981 19.0892L53.5237 11.3654L169.521 11.3669Z" fill="#AF4552"/>
<path d="M85.011 30.2863H112.956C114.137 30.2863 114.861 31.5806 114.246 32.5893L114.245 32.5913C113.97 33.0414 113.482 33.3164 112.955 33.3164H85.0095C83.7788 33.3164 83.0636 31.9232 83.7798 30.9216L83.7813 30.9196C84.065 30.522 84.5231 30.2863 85.011 30.2863Z" fill="white"/>
<path d="M29.1008 143.017H137.049V70.474H29.1008V143.017Z" fill="#A6C0D1"/>
<path d="M190.261 67.3286V143.018H137.051V70.4722H139.168L165.546 20.4568L190.261 67.3286Z" fill="#D7E7F4"/>
<path d="M165.544 24.8795L137.049 78.3792V70.4742H139.17L165.544 20.4577V24.8795Z" fill="#A6C0D1"/>
<path d="M165.546 20.4566L163.024 24.8819L190.261 76.0186V67.3284L165.546 20.4566Z" fill="#A6C0D1"/>
<path d="M137.049 78.3792H29.1008V70.4742H137.049V78.3792Z" fill="#6F95AA"/>
<path d="M137.049 137.767H81.0447V143.017H137.049V137.767Z" fill="#D7E7F4"/>
<path d="M131.946 133.348H86.0845V137.767H131.946V133.348Z" fill="#BDD5E5"/>
<path d="M120.859 84.0983H97.0036C96.169 84.0983 95.4917 84.7759 95.4917 85.612V133.348H122.371V85.612C122.371 84.7759 121.694 84.0983 120.859 84.0983Z" fill="#8C3341"/>
<path d="M120.364 115.391V130.307C120.364 130.864 119.913 131.316 119.356 131.316H98.5018C97.945 131.316 97.4939 130.864 97.4939 130.307V115.391C97.4939 114.834 97.945 114.382 98.5018 114.382H119.356C119.913 114.382 120.364 114.834 120.364 115.391Z" fill="#CE684D"/>
<path d="M100.909 110.011C100.909 110.864 100.218 111.556 99.3662 111.556C98.5135 111.556 97.8225 110.864 97.8225 110.011C97.8225 109.157 98.5135 108.466 99.3662 108.466C100.218 108.466 100.909 109.157 100.909 110.011Z" fill="#CE684D"/>
<path d="M47.7824 85.1073H34.931C34.3742 85.1073 33.9231 85.559 33.9231 86.1165V126.736C33.9231 127.293 34.3742 127.746 34.931 127.746H47.7824C48.3388 127.746 48.7904 127.293 48.7904 126.736V86.1165C48.7904 85.559 48.3388 85.1073 47.7824 85.1073Z" fill="#346697"/>
<path d="M35.4351 126.231V86.6206H47.2785V126.231H35.4351Z" fill="#D7E7F4"/>
<path d="M162.789 78.7037H150.616C150.059 78.7037 149.608 79.1553 149.608 79.7129V122.594C149.608 123.152 150.059 123.604 150.616 123.604H162.789C163.346 123.604 163.797 123.152 163.797 122.594V79.7129C163.797 79.1553 163.346 78.7037 162.789 78.7037Z" fill="#346697"/>
<path d="M162.356 80.2966V122.011H151.052V80.2966H162.356Z" fill="#DFEFED"/>
<path d="M180.205 78.7037H168.033C167.476 78.7037 167.025 79.1553 167.025 79.7129V122.594C167.025 123.152 167.476 123.604 168.033 123.604H180.205C180.762 123.604 181.213 123.152 181.213 122.594V79.7129C181.213 79.1553 180.762 78.7037 180.205 78.7037Z" fill="#346697"/>
<path d="M179.773 80.2966V122.011H168.469V80.2966H179.773Z" fill="#DFEFED"/>
<path d="M64.4136 134.011V122.952H82.3526V134.011H64.4136ZM82.3526 110.589V121.648H64.4136V110.589H82.3526ZM64.4136 109.285V98.2268H82.3526V109.285H64.4136ZM82.3526 85.8642V96.9229H64.4136V85.8642H82.3526ZM82.3526 70.474V84.5603H64.4136V70.474H62.9692V143.017H64.4136V135.314H82.3526V143.017H83.797V70.474H82.3526Z" fill="#6F95AA"/>
<path d="M169.522 11.3655L165.531 19.0894H49.3982L53.5237 11.3655H169.522Z" fill="#CE684D"/>
<path d="M160.965 27.9247L155.693 38.1226H39.238L44.686 27.9247H160.965Z" fill="#CE684D"/>
<path d="M144.863 59.083L150.406 48.3558H33.7749L28.0505 59.083H144.863Z" fill="#CE684D"/>
<path d="M162.295 80.9727L161.927 80.4832C162.099 80.5993 162.23 80.7708 162.295 80.9727Z" fill="white"/>
<path d="M151.052 85.1105L162.356 99.1584V108.16L151.052 94.0317V85.1105Z" fill="white"/>
<path d="M179.773 120.8V122.011H173.433L168.469 115.805V106.753L179.773 120.8Z" fill="white"/>
<path d="M179.773 99.2089V103.977L168.469 89.0968V84.3486L179.773 99.2089Z" fill="white"/>
<path d="M162.356 121.906V122.011H159.513L151.052 113.766V110.365L162.356 121.906Z" fill="white"/>
<path d="M169.522 11.3654V20.4577L143.148 70.4741H138.975L169.522 11.3654Z" fill="#8C3341"/>
<path d="M200.068 70.4741H195.895L169.521 20.4577V11.3654L200.068 70.4741Z" fill="#8C3341"/>
<path d="M141.994 70.4741H23.4429V67.717H141.994V70.4741Z" fill="#8C3341"/>
<path d="M77.4233 82.7468H60.6137C60.0568 82.7468 59.6057 82.2947 59.6057 81.7376C59.6057 81.1801 60.0568 80.7284 60.6137 80.7284H77.4233C77.9797 80.7284 78.4312 81.1801 78.4312 81.7376C78.4312 82.2947 77.9797 82.7468 77.4233 82.7468Z" fill="#DFEFED"/>
<path d="M74.3586 95.6873H57.549C56.9926 95.6873 56.541 95.2356 56.541 94.6781C56.541 94.121 56.9926 93.6689 57.549 93.6689H74.3586C74.9155 93.6689 75.3665 94.121 75.3665 94.6781C75.3665 95.2356 74.9155 95.6873 74.3586 95.6873Z" fill="#DFEFED"/>
<path d="M71.7707 106.616H54.9611C54.4047 106.616 53.9531 106.164 53.9531 105.607C53.9531 105.049 54.4047 104.597 54.9611 104.597H71.7707C72.3271 104.597 72.7786 105.049 72.7786 105.607C72.7786 106.164 72.3271 106.616 71.7707 106.616Z" fill="#DFEFED"/>
<path d="M69.0185 117.903H52.288C51.7316 117.903 51.28 117.451 51.28 116.894C51.28 116.337 51.7316 115.885 52.288 115.885H69.0185C69.5748 115.885 70.0264 116.337 70.0264 116.894C70.0264 117.451 69.5748 117.903 69.0185 117.903Z" fill="#DFEFED"/>
<path d="M66.3458 129.872H49.4535C48.8966 129.872 48.4456 129.421 48.4456 128.863C48.4456 128.306 48.8966 127.854 49.4535 127.854H66.3458C66.9027 127.854 67.3537 128.306 67.3537 128.863C67.3537 129.421 66.9027 129.872 66.3458 129.872Z" fill="#DFEFED"/>
<path d="M79.9603 71.4834H63.3659C62.809 71.4834 62.3579 71.0313 62.3579 70.4742C62.3579 69.9166 62.809 69.465 63.3659 69.465H79.9603C80.5167 69.465 80.9682 69.9166 80.9682 70.4742C80.9682 71.0313 80.5167 71.4834 79.9603 71.4834Z" fill="#DFEFED"/>
<path d="M82.7245 60.2136H66.7172C66.1603 60.2136 65.7092 59.762 65.7092 59.2044C65.7092 58.6474 66.1603 58.1952 66.7172 58.1952H82.7245C83.2808 58.1952 83.7324 58.6474 83.7324 59.2044C83.7324 59.762 83.2808 60.2136 82.7245 60.2136Z" fill="#DFEFED"/>
<path d="M85.3089 48.4365C84.7661 48.3093 84.2239 48.6439 84.0959 49.1858L61.3751 145.131C61.2466 145.674 61.5813 146.218 62.123 146.346C62.2011 146.365 62.2793 146.373 62.3564 146.373C62.813 146.373 63.2262 146.061 63.3366 145.597L86.0573 49.6515C86.1858 49.1091 85.8507 48.5651 85.3089 48.4365Z" fill="#DFEFED"/>
<path d="M68.4992 48.4365C67.9564 48.3093 67.4141 48.6439 67.2861 49.1858L44.5649 145.131C44.4369 145.674 44.7715 146.218 45.3133 146.346C45.3914 146.365 45.4695 146.373 45.5466 146.373C46.0032 146.373 46.4165 146.061 46.5269 145.597L69.2476 49.6515C69.3761 49.1091 69.041 48.5651 68.4992 48.4365Z" fill="#DFEFED"/>
<path d="M190.262 101.843C190.262 101.843 192.171 95.9561 194.691 95.6195C197.211 95.283 196.875 88.9755 197.547 87.2094C198.219 85.4434 200.655 85.5276 202.251 85.023C203.846 84.5184 204.771 83.1727 205.779 85.023C206.787 86.8734 203.846 90.237 204.938 91.9193C206.031 93.6011 205.694 95.4515 203.594 97.1333C201.495 98.8151 205.385 102.014 202.012 104.493C198.639 106.973 197.84 108.564 197.547 110.673C197.253 112.782 194.187 118.494 192.507 118.831C190.827 119.167 190.262 118.831 190.262 118.831V101.843Z" fill="#678742"/>
<path d="M201.411 90.948C201.411 90.948 198.303 101.422 194.691 105.375C191.079 109.328 190.262 109.916 190.262 109.916V110.673C190.262 110.673 193.515 108.483 196.98 102.955C200.445 97.4275 201.411 90.948 201.411 90.948Z" fill="#37664A"/>
<path d="M190.262 143.017C190.262 143.017 196.959 137.081 196.707 132.623C196.455 128.166 195.279 127.493 198.303 125.475C201.326 123.456 203.511 120.597 202.334 118.242C201.159 115.888 198.975 113.953 200.235 111.599C201.495 109.244 203.342 107.982 202.251 105.039C201.159 102.095 198.555 102.432 197.715 105.039C196.875 107.646 197.631 108.066 195.615 108.823C193.599 109.58 193.011 112.019 193.011 113.785C193.011 115.551 190.262 117.149 190.262 117.149V143.017Z" fill="#99B746"/>
<path d="M197.547 110.673C197.547 110.673 195.363 120.429 193.431 123.961C191.499 127.493 190.262 128.514 190.262 128.514V130.906C190.262 130.906 193.431 126.785 195.111 122.009C196.791 117.233 197.547 110.673 197.547 110.673Z" fill="#678742"/>
<path d="M41.5034 142.134V143.899C41.5034 144.302 41.2368 144.628 40.9072 144.628H20.0785C19.7496 144.628 19.4824 144.302 19.4824 143.899V142.134C19.4824 141.732 19.7496 141.405 20.0785 141.405H40.9072C41.2368 141.405 41.5034 141.732 41.5034 142.134Z" fill="#FFAF5F"/>
<path d="M22.0903 144.628H26.833V141.405H22.0903V144.628Z" fill="#FFDF8F"/>
<path d="M28.3308 144.628H30.7021V141.405H28.3308V144.628Z" fill="#FFDF8F"/>
<path d="M40.9072 144.628H20.0785C19.7496 144.628 19.4824 144.302 19.4824 143.899V143.798H22.0905V144.628H26.8332V143.798H28.3309V144.628H30.7022V143.798H41.5034V143.899C41.5034 144.302 41.2368 144.628 40.9072 144.628Z" fill="#F98148"/>
<path d="M22.0903 144.628H26.833V143.798H22.0903V144.628Z" fill="#F99057"/>
<path d="M28.3308 144.628H30.7021V143.798H28.3308V144.628Z" fill="#F99057"/>
<path d="M35.0147 138.911V140.676C35.0147 141.079 34.7481 141.405 34.4185 141.405H13.5898C13.2608 141.405 12.9937 141.079 12.9937 140.676V138.911C12.9937 138.509 13.2608 138.182 13.5898 138.182H34.4185C34.7481 138.182 35.0147 138.509 35.0147 138.911Z" fill="#FFAF5F"/>
<path d="M15.6018 141.405H20.3443V138.182H15.6018V141.405Z" fill="#FFDF8F"/>
<path d="M21.842 141.405H24.2133V138.182H21.842V141.405Z" fill="#FFDF8F"/>
<path d="M34.4185 141.405H13.5898C13.2608 141.405 12.9937 141.079 12.9937 140.676V140.576H15.6019V141.405H20.3444V140.576H21.8422V141.405H24.2134V140.576H35.0147V140.676C35.0147 141.079 34.7481 141.405 34.4185 141.405Z" fill="#F98148"/>
<path d="M15.6018 141.405H20.3443V140.576H15.6018V141.405Z" fill="#F99057"/>
<path d="M21.842 141.405H24.2133V140.576H21.842V141.405Z" fill="#F99057"/>
<path d="M38.4795 135.688V137.454C38.4795 137.856 38.2129 138.182 37.8833 138.182H17.0546C16.7257 138.182 16.4585 137.856 16.4585 137.454V135.688C16.4585 135.286 16.7257 134.959 17.0546 134.959H37.8833C38.2129 134.959 38.4795 135.286 38.4795 135.688Z" fill="#FFAF5F"/>
<path d="M19.0667 138.182H23.8093V134.959H19.0667V138.182Z" fill="#FFDF8F"/>
<path d="M25.3069 138.182H27.6781V134.959H25.3069V138.182Z" fill="#FFDF8F"/>
<path d="M37.8833 138.182H17.0546C16.7257 138.182 16.4585 137.856 16.4585 137.454V137.353H19.0666V138.182H23.8093V137.353H25.307V138.182H27.6783V137.353H38.4795V137.454C38.4795 137.856 38.2129 138.182 37.8833 138.182Z" fill="#F98148"/>
<path d="M19.0667 138.182H23.8093V137.353H19.0667V138.182Z" fill="#F99057"/>
<path d="M25.3069 138.182H27.6781V137.353H25.3069V138.182Z" fill="#F99057"/>
<path d="M41.0882 132.465V134.231C41.0882 134.633 40.8211 134.959 40.492 134.959H19.663C19.3338 134.959 19.0667 134.633 19.0667 134.231V132.465C19.0667 132.063 19.3338 131.737 19.663 131.737H40.492C40.8211 131.737 41.0882 132.063 41.0882 132.465Z" fill="#FFAF5F"/>
<path d="M21.6748 134.959H26.4175V131.737H21.6748V134.959Z" fill="#FFDF8F"/>
<path d="M27.915 134.959H30.2865V131.737H27.915V134.959Z" fill="#FFDF8F"/>
<path d="M40.492 134.959H19.663C19.3338 134.959 19.0667 134.633 19.0667 134.231V134.129H21.6749V134.959H26.4176V134.129H27.9152V134.959H30.2866V134.129H41.0882V134.231C41.0882 134.633 40.8211 134.959 40.492 134.959Z" fill="#F98148"/>
<path d="M21.6748 134.959H26.4175V134.129H21.6748V134.959Z" fill="#F99057"/>
<path d="M27.915 134.959H30.2865V134.129H27.915V134.959Z" fill="#F99057"/>
<path d="M38.4795 129.242V131.008C38.4795 131.41 38.2129 131.737 37.8833 131.737H17.0546C16.7257 131.737 16.4585 131.41 16.4585 131.008V129.242C16.4585 128.84 16.7257 128.514 17.0546 128.514H37.8833C38.2129 128.514 38.4795 128.84 38.4795 129.242Z" fill="#FFAF5F"/>
<path d="M19.0667 131.737H23.8093V128.514H19.0667V131.737Z" fill="#FFDF8F"/>
<path d="M25.3069 131.737H27.6781V128.514H25.3069V131.737Z" fill="#FFDF8F"/>
<path d="M37.8833 131.737H27.6783V130.907H38.4795V131.008C38.4795 131.41 38.2129 131.737 37.8833 131.737ZM25.307 131.737H23.8093V130.907H25.307V131.737ZM19.0666 131.737H17.0546C16.7257 131.737 16.4585 131.41 16.4585 131.008V130.907H19.0666V131.737Z" fill="#F98148"/>
<path d="M23.8094 131.737H19.0667V130.907H23.8094V131.737Z" fill="#F99057"/>
<path d="M27.6781 131.737H25.3069V130.907H27.6781V131.737Z" fill="#F99057"/>
<path d="M167.858 138.911V140.676C167.858 141.079 167.554 141.405 167.178 141.405H143.419C143.044 141.405 142.74 141.079 142.74 140.676V138.911C142.74 138.509 143.044 138.182 143.419 138.182H167.178C167.554 138.182 167.858 138.509 167.858 138.911Z" fill="#FFAF5F"/>
<path d="M145.714 141.405H151.124V138.182H145.714V141.405Z" fill="#FFDF8F"/>
<path d="M152.833 141.405H155.537V138.182H152.833V141.405Z" fill="#FFDF8F"/>
<path d="M167.178 141.405H143.419C143.044 141.405 142.74 141.079 142.74 140.676V140.576H145.714V141.405H151.124V140.576H152.833V141.405H155.537V140.576H167.858V140.676C167.858 141.079 167.554 141.405 167.178 141.405Z" fill="#F98148"/>
<path d="M145.714 141.405H151.124V140.576H145.714V141.405Z" fill="#F99057"/>
<path d="M152.833 141.405H155.537V140.576H152.833V141.405Z" fill="#F99057"/>
<path d="M164.883 142.134V143.899C164.883 144.302 164.579 144.628 164.203 144.628H140.444C140.069 144.628 139.764 144.302 139.764 143.899V142.134C139.764 141.732 140.069 141.405 140.444 141.405H164.203C164.579 141.405 164.883 141.732 164.883 142.134Z" fill="#FFAF5F"/>
<path d="M142.74 144.628H148.149V141.405H142.74V144.628Z" fill="#FFDF8F"/>
<path d="M149.858 144.628H152.562V141.405H149.858V144.628Z" fill="#FFDF8F"/>
<path d="M164.203 144.628H140.444C140.069 144.628 139.764 144.302 139.764 143.899V143.798H142.739V144.628H148.149V143.798H149.858V144.628H152.562V143.798H164.883V143.899C164.883 144.302 164.579 144.628 164.203 144.628Z" fill="#F98148"/>
<path d="M142.74 144.628H148.149V143.798H142.74V144.628Z" fill="#F99057"/>
<path d="M149.858 144.628H152.562V143.798H149.858V144.628Z" fill="#F99057"/>
<path d="M165.653 135.688V137.454C165.653 137.856 165.349 138.182 164.973 138.182H141.215C140.839 138.182 140.534 137.856 140.534 137.454V135.688C140.534 135.286 140.839 134.959 141.215 134.959H164.973C165.349 134.959 165.653 135.286 165.653 135.688Z" fill="#FFAF5F"/>
<path d="M143.51 138.182H148.919V134.959H143.51V138.182Z" fill="#FFDF8F"/>
<path d="M150.628 138.182H153.333V134.959H150.628V138.182Z" fill="#FFDF8F"/>
<path d="M164.973 138.182H141.215C140.839 138.182 140.534 137.856 140.534 137.454V137.353H143.509V138.182H148.919V137.353H150.628V138.182H153.332V137.353H165.653V137.454C165.653 137.856 165.349 138.182 164.973 138.182Z" fill="#F98148"/>
<path d="M143.51 138.182H148.919V137.353H143.51V138.182Z" fill="#F99057"/>
<path d="M150.628 138.182H153.333V137.353H150.628V138.182Z" fill="#F99057"/>
<path d="M166.913 132.465V134.231C166.913 134.633 166.609 134.959 166.233 134.959H142.475C142.099 134.959 141.794 134.633 141.794 134.231V132.465C141.794 132.063 142.099 131.737 142.475 131.737H166.233C166.609 131.737 166.913 132.063 166.913 132.465Z" fill="#FFAF5F"/>
<path d="M144.77 134.959H150.179V131.737H144.77V134.959Z" fill="#FFDF8F"/>
<path d="M151.887 134.959H154.592V131.737H151.887V134.959Z" fill="#FFDF8F"/>
<path d="M166.233 134.959H142.475C142.099 134.959 141.794 134.633 141.794 134.231V134.129H144.769V134.959H150.179V134.129H151.888V134.959H154.592V134.129H166.913V134.231C166.913 134.633 166.609 134.959 166.233 134.959Z" fill="#F98148"/>
<path d="M144.77 134.959H150.179V134.129H144.77V134.959Z" fill="#F99057"/>
<path d="M151.887 134.959H154.592V134.129H151.887V134.959Z" fill="#F99057"/>
<path d="M162.167 129.242V131.008C162.167 131.41 161.863 131.737 161.487 131.737H137.729C137.353 131.737 137.049 131.41 137.049 131.008V129.242C137.049 128.84 137.353 128.514 137.729 128.514H161.487C161.863 128.514 162.167 128.84 162.167 129.242Z" fill="#FFAF5F"/>
<path d="M140.024 131.737H145.434V128.514H140.024V131.737Z" fill="#FFDF8F"/>
<path d="M147.142 131.737H149.846V128.514H147.142V131.737Z" fill="#FFDF8F"/>
<path d="M161.487 131.737H149.847V130.907H162.167V131.008C162.167 131.41 161.863 131.737 161.487 131.737ZM147.142 131.737H145.434V130.907H147.142V131.737ZM140.024 131.737H137.729C137.353 131.737 137.049 131.41 137.049 131.008V130.907H140.024V131.737Z" fill="#F98148"/>
<path d="M145.434 131.737H140.024V130.907H145.434V131.737Z" fill="#F99057"/>
<path d="M147.142 131.737H149.846V130.907H147.142V131.737Z" fill="#F99057"/>
<path d="M92.9704 146.878H12.9937C12.7156 146.878 12.4897 146.652 12.4897 146.373C12.4897 146.095 12.7156 145.869 12.9937 145.869H92.9704C93.2486 145.869 93.4744 146.095 93.4744 146.373C93.4744 146.652 93.2486 146.878 92.9704 146.878Z" fill="#6F95AA"/>
<path d="M154.354 146.878H99.3663C99.0881 146.878 98.8623 146.652 98.8623 146.373C98.8623 146.095 99.0881 145.869 99.3663 145.869H154.354C154.632 145.869 154.858 146.095 154.858 146.373C154.858 146.652 154.632 146.878 154.354 146.878Z" fill="#6F95AA"/>
<path d="M126.86 151.041H44.5377C44.2595 151.041 44.0337 150.815 44.0337 150.536C44.0337 150.258 44.2595 150.032 44.5377 150.032H126.86C127.138 150.032 127.364 150.258 127.364 150.536C127.364 150.815 127.138 151.041 126.86 151.041Z" fill="#6F95AA"/>
<path d="M187.215 151.041H142.729C142.45 151.041 142.225 150.815 142.225 150.536C142.225 150.258 142.45 150.032 142.729 150.032H187.215C187.494 150.032 187.719 150.258 187.719 150.536C187.719 150.815 187.494 151.041 187.215 151.041Z" fill="#6F95AA"/>
<path d="M102.475 25.5617H105.883C106.652 25.5617 107.138 26.3892 106.764 27.0618L95.2034 47.838C95.0255 48.1574 94.6889 48.3557 94.323 48.3557H90.7619C89.9903 48.3557 89.505 47.5231 89.8845 46.8505L101.598 26.0748C101.776 25.7579 102.112 25.5617 102.475 25.5617Z" fill="#702836"/>
<path d="M79.7324 7.95783C79.7324 7.95783 78.6489 14.8859 78.4422 15.2189C78.2306 15.557 72.4349 22.4851 72.4349 22.4851L70.6306 20.0984L74.0728 14.9666C74.0728 14.9666 75.0354 14.0584 75.7762 13.3217C76.134 12.9584 76.4415 12.6405 76.5523 12.4891C76.885 12.0249 77.8526 9.80969 78.6086 9.20418C78.6993 9.13353 78.7799 9.06289 78.8605 8.99225V8.9872C79.4452 8.46242 79.7324 7.95783 79.7324 7.95783Z" fill="#FFB2A8"/>
<path d="M79.7324 7.95783C79.7324 7.95783 78.6489 14.8859 78.4422 15.2189C78.2306 15.557 72.4349 22.4851 72.4349 22.4851L70.6306 20.0984L74.0728 14.9666C74.0728 14.9666 75.0354 14.0584 75.7762 13.3217C75.8216 14.7497 75.8972 16.2281 76.003 16.2281C76.2147 16.1878 76.8446 15.3451 76.885 14.9263C76.9202 14.6185 77.6409 11.3235 78.8605 8.99225V8.9872C79.4452 8.46242 79.7324 7.95783 79.7324 7.95783Z" fill="#F26173"/>
<path d="M107.586 10.8955C110.391 18.9771 106.122 27.806 98.0504 30.6151C89.9788 33.4241 81.1607 29.1497 78.3551 21.0681C75.5494 12.9865 79.8186 4.15764 87.8903 1.34856C95.962 -1.46052 104.78 2.8139 107.586 10.8955Z" fill="#FFAF5F"/>
<path d="M103.266 12.3987C105.242 18.0916 102.236 24.3112 96.5486 26.2902C90.8628 28.2692 84.6513 25.2578 82.6752 19.565C80.6986 13.8721 83.7053 7.652 89.3912 5.67349C95.078 3.69447 101.29 6.70589 103.266 12.3987Z" fill="white"/>
<path d="M96.5484 26.2902C90.8626 28.2692 84.6511 25.2578 82.675 19.565C80.6984 13.8721 83.7051 7.652 89.391 5.67349C95.0778 3.69447 101.289 6.70589 103.266 12.3987C105.242 18.0916 102.235 24.3112 96.5484 26.2902ZM89.1077 4.85756C82.9718 6.99301 79.7262 13.7041 81.8591 19.8486C83.9924 25.9925 90.6958 29.2416 96.8317 27.1062C102.969 24.9707 106.214 18.2591 104.081 12.1146C101.948 5.9707 95.2446 2.72212 89.1077 4.85756Z" fill="#F76D3E"/>
<path d="M103.266 12.3987C105.242 18.0916 102.236 24.3112 96.5486 26.2902C90.8628 28.2692 84.6513 25.2578 82.6752 19.565C80.6986 13.8721 83.7053 7.652 89.3912 5.67349C95.078 3.69447 101.29 6.70589 103.266 12.3987Z" fill="#FFE3AB"/>
<path d="M94.1935 19.5065C89.6945 21.0722 84.8674 19.5135 82.0684 15.9743C82.0679 17.1651 82.2624 18.3762 82.6751 19.565C84.6512 25.2578 90.8627 28.2692 96.5486 26.2902C102.235 24.3112 105.242 18.0916 103.266 12.3987C102.853 11.2104 102.256 10.1392 101.517 9.20565C101.514 13.7198 98.693 17.9407 94.1935 19.5065Z" fill="#FFAF5F"/>
<path d="M95.7634 17.4871C95.6978 17.2989 95.6071 17.1455 95.4912 17.0274C95.3753 16.9093 95.2377 16.8165 95.0785 16.7499C94.9187 16.6828 94.7438 16.6384 94.5528 16.6156C94.3618 16.5929 94.1582 16.5834 93.9425 16.5859L94.7388 19.6957C95.2397 19.4434 95.5759 19.128 95.7472 18.7486C95.9181 18.3691 95.9236 17.9488 95.7634 17.4871ZM90.46 13.8747C90.5255 14.0639 90.6158 14.2188 90.7302 14.3404C90.8446 14.462 90.9791 14.5584 91.1343 14.6296C91.2896 14.7007 91.4614 14.7522 91.6504 14.784C91.8394 14.8153 92.0395 14.8334 92.2522 14.837L91.5259 12.0011C91.2654 12.1313 91.0527 12.2706 90.8879 12.4194C90.7231 12.5688 90.5996 12.7247 90.517 12.8872C90.4343 13.0492 90.39 13.2137 90.3839 13.3797C90.3779 13.5462 90.4031 13.7112 90.46 13.8747ZM93.9969 21.6389C93.3896 21.7615 92.7904 21.7918 92.1997 21.7307C91.6091 21.6692 91.0744 21.5243 90.5951 21.2963L90.8682 20.2578C90.8914 20.166 90.9363 20.0822 91.0018 20.0065C91.0668 19.9308 91.1444 19.8774 91.2336 19.8466C91.3425 19.8087 91.4725 19.8067 91.6227 19.8405C91.7734 19.8743 91.9463 19.9157 92.1408 19.9646C92.3358 20.0136 92.5525 20.055 92.7919 20.0883C93.0313 20.1216 93.2984 20.1155 93.5932 20.0681L92.7183 16.6353C92.3318 16.6585 91.9432 16.6626 91.5521 16.6479C91.1606 16.6333 90.7891 16.5632 90.4373 16.437C90.0856 16.3114 89.7661 16.1085 89.4803 15.8285C89.194 15.5484 88.9632 15.1548 88.7868 14.6467C88.6553 14.2683 88.6024 13.8722 88.6286 13.4589C88.6543 13.0451 88.7616 12.6465 88.9506 12.2625C89.1396 11.879 89.4123 11.5213 89.7701 11.1908C90.1269 10.8597 90.5785 10.5994 91.1233 10.4096L90.8763 9.43324C90.8446 9.31012 90.8566 9.18448 90.9126 9.05833C90.9685 8.93218 91.0683 8.84388 91.2125 8.79392L91.8888 8.55827L92.2703 10.066C92.8252 9.96761 93.3302 9.95853 93.7858 10.0388C94.2414 10.1195 94.6571 10.2446 95.0326 10.4142L94.8214 11.2468C94.7867 11.3699 94.7433 11.4688 94.6909 11.5425C94.639 11.6161 94.5634 11.6701 94.4641 11.7049C94.39 11.7307 94.2938 11.7377 94.1758 11.7256C94.0579 11.714 93.9213 11.6979 93.7671 11.6762C93.6124 11.655 93.4436 11.6373 93.2611 11.6227C93.0782 11.6086 92.8826 11.6131 92.674 11.6353L93.4839 14.8092C93.8785 14.7941 94.2736 14.7915 94.6687 14.8016C95.0633 14.8112 95.4373 14.8723 95.7896 14.9828C96.1418 15.0938 96.4588 15.2744 96.7401 15.5242C97.0208 15.774 97.2425 16.1317 97.4043 16.5985C97.5646 17.0597 97.6382 17.5194 97.6251 17.9775C97.6114 18.4352 97.5116 18.8712 97.3242 19.2839C97.1372 19.6962 96.8615 20.0746 96.4977 20.4183C96.1338 20.7619 95.6807 21.05 95.1399 21.2826L95.4302 22.4079C95.46 22.526 95.4474 22.6481 95.3914 22.7762C95.336 22.9039 95.2362 22.9927 95.0926 23.0432L94.4162 23.2783L93.9969 21.6389Z" fill="#F76D3E"/>
<path d="M69.285 11.7094C69.285 11.7094 69.2643 10.3218 68.4453 10.343C67.6264 10.3642 67.3951 11.1418 66.8281 10.8264C66.2611 10.511 64.9175 11.2679 65.2955 12.5294C65.6735 13.7909 63.9932 14.1486 65.0642 14.9686C66.1351 15.7886 67.3532 15.3259 67.3532 15.3259C67.3532 15.3259 66.9753 17.8488 67.899 18.963C68.8233 20.0776 69.7471 19.8884 69.7471 19.8884C69.7471 19.8884 69.9149 20.6453 70.6079 20.4137C71.3009 20.1826 73.8208 17.26 74.1987 15.5782C74.5767 13.8964 74.3247 12.8872 74.3247 12.8872C74.3247 12.8872 74.4301 12.3195 73.7789 11.6464C73.1278 10.9737 71.9732 10.3218 69.285 11.7094Z" fill="#231547"/>
<path d="M72.3087 22.1799C72.3087 22.1799 72.729 19.9092 72.918 19.4889C73.107 19.0686 73.4825 18.9616 74.3876 18.627C74.9103 18.4338 75.2545 18.459 75.1814 17.1249C75.0488 14.7013 74.304 12.9922 74.304 12.9922C74.304 12.9922 72.918 14.611 72.2251 14.6953C71.5321 14.7795 71.8471 15.9355 71.4691 15.8518C71.0911 15.7675 70.6486 15.2417 70.4183 16.209C70.188 17.1763 70.7131 17.5548 71.3008 17.744C71.8889 17.9332 71.6369 19.3628 70.8598 19.6569C70.0832 19.9516 69.747 19.8885 69.747 19.8885C69.747 19.8885 69.7682 21.1919 69.495 21.2969C69.2219 21.4023 68.5712 22.0538 69.7259 22.3272C70.881 22.6007 72.2457 22.4953 72.3087 22.1799Z" fill="#FFB2A8"/>
<path d="M66.624 75.8722C66.624 75.8722 66.7661 77.1307 67.4041 77.6635C68.0427 78.1959 70.7732 79.0123 71.128 79.687C71.4823 80.3616 70.5248 80.9651 70.5248 80.9651H63.8229C63.8229 80.9651 62.9006 80.3263 63.1843 79.1546C63.4681 77.9829 63.8934 75.8722 63.8934 75.8722H66.624Z" fill="#231547"/>
<path d="M69.8208 76.4414C69.8208 76.4414 69.9468 77.5591 70.5138 78.0324C71.0807 78.5052 73.5059 79.2308 73.8209 79.8297C74.1358 80.4292 73.2856 80.9651 73.2856 80.9651H67.3322C67.3322 80.9651 66.5132 80.3974 66.7652 79.3569C67.0172 78.316 67.3952 76.4414 67.3952 76.4414H69.8208Z" fill="#231547"/>
<path d="M72.4045 58.7605C72.2482 59.805 70.9883 77.0571 70.3533 77.3094C69.7284 77.5617 68.8766 77.4003 68.4987 77.3094C68.1207 77.2136 67.0472 76.9613 67.017 76.709C67.0069 76.6232 67.0018 76.5374 67.0018 76.4466V76.4415C67.0018 76.2649 67.017 76.1085 67.017 76.1085C67.017 76.1085 65.4093 76.7392 64.9053 76.7392C64.4013 76.7392 63.5849 76.6434 63.3631 76.3002C63.343 76.27 63.3228 76.1388 63.2976 75.9218C63.0356 73.5199 62.5013 60.6073 62.7937 59.3963C63.1112 58.0692 63.2976 58.1954 63.1767 57.1256C63.0456 56.0508 61.4732 46.3374 61.8512 44.0667C62.2292 41.796 62.7937 39.6515 62.7937 39.6515C62.7937 39.6515 67.4605 41.4176 68.7809 41.4176C70.1013 41.4176 71.961 40.1561 71.961 40.1561C71.961 40.1561 72.5607 57.7211 72.4045 58.7605Z" fill="#41277A"/>
<path d="M92.4679 31.8606C92.0899 31.9564 89.3835 31.6739 88.8141 31.8606C88.2446 32.0523 82.7663 33.662 81.6626 33.2482C80.8563 32.9505 78.3062 31.4468 76.6078 30.2862C75.9828 29.8573 75.4738 29.4738 75.2067 29.2114C74.1988 28.2325 76.008 24.8972 76.9404 25.6793C76.9404 25.6793 77.4595 26.1183 78.1902 26.7339C79.8987 28.1619 82.7663 30.5385 82.9881 30.5638C83.3006 30.5991 84.5958 30.6849 86.0119 30.5638C87.4281 30.4427 88.2446 31.0633 89.0005 30.5638C89.7565 30.0642 90.578 29.716 90.6082 30.1298C90.6435 30.5385 89.8875 31.0431 90.2605 31.1037C90.6435 31.1693 92.3721 31.0078 93.2541 30.917C94.136 30.8211 92.8459 31.7647 92.4679 31.8606Z" fill="#FFB2A8"/>
<path d="M78.1902 26.7338L76.6078 30.2861C75.9828 29.8572 75.4738 29.4737 75.2067 29.2113C74.1988 28.2324 76.008 24.8971 76.9404 25.6792C76.9404 25.6792 77.4595 26.1182 78.1902 26.7338Z" fill="#F26173"/>
<path d="M69.8208 21.0133C69.8208 21.0133 70.1358 21.7384 70.797 21.8645C71.4587 21.9907 72.0257 21.7384 72.3719 21.8645C72.7186 21.9907 75.8685 23.1578 76.5297 23.8829C77.1914 24.6085 78.0104 25.8382 78.0416 26.1223C78.0734 26.4059 77.0337 27.2258 76.5297 28.456C76.0257 29.6857 75.7737 30.6949 75.4905 30.6636C75.2068 30.6318 74.8288 30.2852 74.8288 30.2852C74.8288 30.2852 73.4746 35.0788 73.0336 36.1824C72.5926 37.2864 72.3407 39.5884 72.3407 40.093C72.3407 40.5976 72.5609 41.134 72.1829 41.2914C71.8049 41.4494 69.3798 41.8909 68.3089 41.8909C67.2379 41.8909 62.8594 40.2192 62.7964 39.6515C62.7334 39.0838 64.0563 31.8303 64.403 30.6636C64.7493 29.4965 65.915 26.3115 66.1982 25.1762C66.4819 24.0408 67.2691 22.4322 67.8361 21.5491C68.4031 20.6661 69.726 20.3194 69.726 20.3194L69.8208 21.0133Z" fill="#DFEFED"/>
<path d="M74.8287 30.2851L72.6238 28.4242L74.1312 32.7026L74.8287 30.2851Z" fill="#A6C0D1"/>
<path d="M66.8257 58.5486C67.0172 59.6486 67.0172 76.1085 67.0172 76.1085C67.0172 76.1085 65.4095 76.7393 64.9055 76.7393C64.4016 76.7393 63.5851 76.6434 63.3634 76.3003C63.3432 76.27 63.3231 76.1388 63.2979 75.9218C64.0538 75.8663 64.7291 75.8007 65.0013 75.7301C65.7573 75.5434 65.7573 60.1532 65.8177 59.2046C65.8832 58.256 65.0618 58.1954 65.4448 57.4385C65.8076 56.7069 64.5276 46.07 64.4419 45.3636C64.5729 46.075 66.6442 57.4839 66.8257 58.5486Z" fill="#231547"/>
<path d="M67.002 76.4414C67.002 76.2648 67.0171 76.1084 67.0171 76.1084C67.0171 76.1084 67.0221 76.2396 67.002 76.4414Z" fill="white"/>
<path d="M79.9314 6.82158C79.9314 6.82158 80.3975 5.276 81.2039 4.86627C82.0103 4.45604 82.987 4.26681 83.365 4.86627C83.7429 5.46523 82.9552 7.29438 81.8843 7.45232C80.8133 7.60975 79.3765 8.03866 79.9314 6.82158Z" fill="#FFB2A8"/>
</g>
<defs>
<clipPath id="clip0_921_20925">
<rect width="206" height="151" fill="white" transform="translate(0 0.200195)"/>
</clipPath>
</defs>
</svg>
