<svg width="270" height="139" viewBox="0 0 270 139" fill="none" xmlns="http://www.w3.org/2000/svg">
<g clip-path="url(#clip0_921_20924)">
<path d="M87.1855 19.1509H52.4094C52.4094 19.1509 54.1351 14.3111 59.3632 17.129C59.915 14.8451 62.5366 15.28 62.5366 15.28C62.9826 4.74707 77.9536 3.18768 79.1137 15.008C84.1178 9.56915 89.7743 13.7981 87.1855 19.1509Z" fill="#E5E3E1"/>
<path d="M55.1453 51.1038H9.03577C9.03577 51.1038 10.0872 42.081 19.587 45.5256C20.3123 40.8848 24.0832 40.341 25.0983 41.7184C27.9627 32.5091 40.0732 27.6503 45.5844 41.3558C51.2408 37.5854 54.476 44.5824 51.6258 48.6799C57.5863 45.8521 55.1453 51.1038 55.1453 51.1038Z" fill="#E5E3E1"/>
<path d="M255.76 105.966C255.76 105.966 258.131 105.988 259.12 102.469C260.108 98.9506 262.677 102.112 264.949 99.3461C267.222 96.5793 269.198 93.6149 269.495 95.5914C269.791 97.5673 269.198 106.756 266.728 109.621C264.258 112.487 268.012 116.538 265.147 118.81C262.282 121.082 259.614 119.601 258.626 121.873C257.637 124.145 247.164 130.667 240.643 127.011C234.122 123.355 249.14 106.065 255.76 105.966Z" fill="#678742"/>
<path d="M239.062 117.57C239.062 117.57 235.9 109.226 238.469 107.448C241.038 105.669 242.421 104.95 242.224 101.604C242.026 98.259 244.066 97.2711 247.245 96.7771C250.425 96.2831 247.759 91.2437 251.513 90.1572C255.266 89.0701 254.772 90.9474 256.847 87.7859C258.922 84.6237 260.206 82.7464 261.985 86.8965C263.763 91.0459 264.257 95.4923 260.602 97.6659C256.946 99.8401 257.045 101.914 258.725 104.977C260.404 108.04 257.539 112.888 254.08 113.429C250.623 113.969 247.46 115.154 248.547 119.304C249.635 123.454 243.459 128.197 239.927 126.023C236.394 123.849 239.062 117.57 239.062 117.57Z" fill="#99B746"/>
<path d="M239.927 121.083L239.892 121.081C239.729 121.062 239.613 120.914 239.632 120.752C239.645 120.648 240.94 110.286 247.988 105.602C254.823 101.06 256.931 91.1846 256.952 91.0847C256.985 90.9238 257.145 90.818 257.302 90.8555C257.463 90.8883 257.566 91.0453 257.532 91.2056C257.511 91.3068 255.352 101.42 248.316 106.095C241.5 110.626 240.233 120.72 240.221 120.821C240.203 120.972 240.075 121.083 239.927 121.083Z" fill="#678742"/>
<path d="M7.02331 119.562C7.02331 119.562 2.18162 108.605 9.29573 103.619C16.4098 98.634 20.8561 102.586 20.8561 102.586C20.8561 102.586 20.9549 97.1514 24.2156 97.5469C27.4762 97.9423 27.8714 100.808 27.8714 100.808C27.8714 100.808 32.5155 91.5201 37.357 92.3103C42.1982 93.1005 43.3839 100.214 43.3839 100.214C43.3839 100.214 48.6541 90.2799 57.032 94.5161C65.4098 98.7522 62.7501 105.912 62.7501 105.912C62.7501 105.912 67.1966 104.463 69.3702 109.305C71.5445 114.146 65.1215 123.657 65.1215 123.657H4.25672C4.25672 123.657 3.07098 117.468 7.02331 119.562Z" fill="#99B746"/>
<path d="M2.67551 127.68H66.8431C66.8431 127.68 69.3702 116.844 65.6653 114.458C61.9599 112.071 58.8482 116.007 58.8482 116.007C58.8482 116.007 59.49 112.466 56.9209 110.787C54.3518 109.107 51.0911 111.38 51.0911 111.38C51.0911 111.38 51.4865 104.365 45.9529 103.673C40.42 102.981 37.7524 109.206 37.7524 109.206C37.7524 109.206 35.183 103.377 29.9465 104.957C24.7096 106.538 25.7965 114.244 25.7965 114.244C25.7965 114.244 25.2035 109.47 19.7694 112.006C14.3349 114.541 14.7301 121.341 14.7301 121.341C14.7301 121.341 15.4216 115.569 9.49323 114.265C3.56486 112.96 -3.15407 120.664 2.67551 127.68Z" fill="#678742"/>
<path d="M30.6179 127.68H71.9622C71.9622 127.68 73.5906 120.698 71.2035 119.161C68.8157 117.623 66.8109 120.159 66.8109 120.159C66.8109 120.159 67.2241 117.878 65.5694 116.796C63.9141 115.713 61.8127 117.178 61.8127 117.178C61.8127 117.178 62.0676 112.658 58.5027 112.212C54.9371 111.766 53.2187 115.777 53.2187 115.777C53.2187 115.777 51.5634 112.021 48.189 113.039C44.8152 114.058 45.5154 119.023 45.5154 119.023C45.5154 119.023 45.1331 115.948 41.6319 117.581C38.1301 119.214 38.385 123.596 38.385 123.596C38.385 123.596 38.8303 119.877 35.0108 119.036C31.1909 118.196 26.8619 123.159 30.6179 127.68Z" fill="#37664A"/>
<path d="M151.477 60.0563L150.096 64.052L105.164 13.7983L60.2329 64.052L58.8456 60.0563L105.164 7.47856L151.477 60.0563Z" fill="#E2582D"/>
<path d="M245.348 60.0562H151.477L145.021 52.7288L136.188 42.6984L125.754 30.8538L116.92 20.8227L108.52 11.2903L105.164 7.47844H187.901L192.069 11.2903L202.479 20.8227L213.441 30.8538L226.382 42.6984L237.344 52.7288L245.348 60.0562Z" fill="#F98D43"/>
<path d="M150.096 64.052H245.346V60.055H151.477L150.096 64.052Z" fill="#E2582D"/>
<path d="M236.767 64.052V124.817H150.096V64.052H236.767Z" fill="#BAB4A8"/>
<path d="M63.5883 60.2993V124.817H150.096V64.052L105.164 13.7982L63.5883 60.2993Z" fill="#E5E3E1"/>
<path d="M117.489 87.0305V124.817H89.7026V87.0305C89.7026 79.359 95.922 73.1404 103.599 73.1404C111.271 73.1404 117.489 79.359 117.489 87.0305Z" fill="#918E88"/>
<path d="M103.893 73.1436V124.819C103.893 124.984 103.762 125.116 103.598 125.116C103.434 125.116 103.302 124.984 103.302 124.819V73.1436C103.401 73.1371 103.499 73.1371 103.598 73.1371C103.696 73.1371 103.795 73.1371 103.893 73.1436Z" fill="#54514C"/>
<path d="M100.967 98.14V104.365C100.967 104.69 100.7 104.957 100.374 104.957C100.042 104.957 99.7812 104.69 99.7812 104.365V98.14C99.7812 97.8136 100.042 97.5469 100.374 97.5469C100.7 97.5469 100.967 97.8136 100.967 98.14Z" fill="#54514C"/>
<path d="M107.115 98.14V104.365C107.115 104.69 106.848 104.957 106.521 104.957C106.196 104.957 105.929 104.69 105.929 104.365V98.14C105.929 97.8136 106.196 97.5469 106.521 97.5469C106.848 97.5469 107.115 97.8136 107.115 98.14Z" fill="#54514C"/>
<path d="M129.198 112.006H120.602V78.206H129.198V112.006Z" fill="#918E88"/>
<path d="M139.623 112.006H131.026V78.206H139.623V112.006Z" fill="#918E88"/>
<path d="M75.1015 112.006H66.5049V78.206H75.1015V112.006Z" fill="#918E88"/>
<path d="M85.5255 112.006H76.9296V78.206H85.5255V112.006Z" fill="#918E88"/>
<path d="M63.5883 60.2991V64.0518L105.161 17.4161L150.096 68.2019V64.0518L105.164 13.7981L63.5883 60.2991Z" fill="#BAB4A8"/>
<path d="M231.117 64.0518V68.2019H150.096V64.0518H231.117Z" fill="#918E88"/>
<path d="M160.569 64.052V124.817H220.273V64.052H160.569Z" fill="#918E88"/>
<path d="M234.576 126.003V126.495C234.576 127.153 234.042 127.68 233.39 127.68H59.3967C58.7445 127.68 58.2111 127.153 58.2111 126.495V126.003C58.2111 125.351 58.7445 124.817 59.3967 124.817H233.39C234.042 124.817 234.576 125.351 234.576 126.003Z" fill="#BAB4A8"/>
<path d="M192.069 11.2903H108.52L105.164 7.47847H187.901L192.069 11.2903Z" fill="#E2582D"/>
<path d="M213.441 30.8538H125.754L116.92 20.8227H202.479L213.441 30.8538Z" fill="#E2582D"/>
<path d="M237.344 52.7288H145.021L136.188 42.6984H226.382L237.344 52.7288Z" fill="#E2582D"/>
<path d="M145.27 4.66903V36.9797L135.322 23.9179V0.363255L145.27 4.66903Z" fill="white"/>
<path d="M156.219 4.66903V36.9797H145.27V4.66903H156.219Z" fill="#D8D5CE"/>
<path d="M134.162 0.360048H147.091L157.472 5.17554H145.267L134.162 0.360048Z" fill="#918E88"/>
<path d="M157.469 5.17555V11.1741H145.27V5.17555H157.469Z" fill="#BAB4A8"/>
<path d="M145.27 5.17555V11.1741L134.16 5.91125V0.363328L145.27 5.17555Z" fill="#D8D5CE"/>
<path d="M178.146 60.0549H166.862L160.007 52.7289H171.185L178.146 60.0549Z" fill="#D44D38"/>
<path d="M178.378 60.2993H167.091L166.862 60.0549H178.146L178.378 60.2993Z" fill="#C8332D"/>
<path d="M161.654 42.6985H150.621L145.27 36.9798H156.219L161.654 42.6985Z" fill="#D44D38"/>
<path d="M171.185 52.7288H160.007L150.621 42.6984H161.654L171.185 52.7288Z" fill="#C8332D"/>
<path d="M84.1179 130.34C84.1179 131.809 72.0503 133 57.1653 133C42.2797 133 30.2123 131.809 30.2123 130.34C30.2123 128.871 42.2797 127.68 57.1653 127.68C72.0503 127.68 84.1179 128.871 84.1179 130.34Z" fill="#E5E3E1"/>
<path d="M68.8269 35.2344C68.8486 35.1129 70.7266 35.4387 70.9486 31.3628C71.1707 27.287 67.5401 27.6207 67.5401 27.6207C67.5401 27.6207 66.6132 24.9157 63.6119 24.9157C60.6113 24.9157 59.3632 26.324 59.3632 26.324C59.3632 26.324 57.585 24.0512 53.4847 26.768C49.3838 29.4855 49.483 33.7341 51.4096 36.3032C53.3363 38.8722 52.5953 39.7609 51.6566 40.7495C50.7179 41.7374 48.6429 48.802 56.2016 46.5785C63.7604 44.3557 63.6618 40.3646 63.3649 35.9622C63.0687 31.5606 68.8269 35.2344 68.8269 35.2344Z" fill="#41277A"/>
<path d="M60.5712 41.5889C60.5712 41.5889 61.4139 41.0949 61.6609 39.9835C61.9079 38.8721 61.5125 37.044 61.4632 36.5993C61.4139 36.1546 60.9443 35.4879 60.9443 35.4879C60.9443 35.4879 59.3632 35.6114 59.3632 34.1045C59.3632 32.5977 60.2775 32.0052 60.7466 32.2022C61.2162 32.3999 61.2405 32.8939 61.636 32.6226C62.0314 32.3507 61.5125 31.906 61.9572 30.943C62.4019 29.9794 64.2793 28.3983 65.3658 28.5218C66.4529 28.6453 66.6749 29.3126 66.6749 29.3126C66.6749 29.3126 68.5523 29.6339 68.9477 32.0787C69.3432 34.5242 68.1818 38.2789 67.54 38.6001C66.8976 38.9213 66.5022 38.9213 66.5022 38.9213C66.5022 38.9213 66.4779 40.576 66.6506 40.9964C66.8234 41.4161 67.5019 41.6145 67.5019 41.6145C67.5019 41.6145 68.1076 51.6672 65.1188 50.0736C62.13 48.4807 60.5712 41.5889 60.5712 41.5889Z" fill="#FFB2A8"/>
<path d="M70.2103 124.289C70.2819 124.994 71.0228 128.96 70.8034 129.441C70.5781 129.921 69.6532 130.662 68.574 130.81C67.5013 130.958 64.9815 130.774 64.8337 130.105C64.768 129.808 65.1654 128.557 65.6219 127.158C66.1849 125.427 66.8372 123.477 66.7958 122.878C66.7544 122.243 66.5527 119.072 66.3984 116.593C66.292 114.886 66.2026 113.505 66.2026 113.505L71.7993 113.138C71.7993 113.138 71.26 114.904 70.8034 116.653C70.4954 117.874 70.2221 119.084 70.2103 119.695C70.1807 120.767 70.1512 122.321 70.1689 123.364C70.1748 123.767 70.1866 124.093 70.2103 124.289Z" fill="#FFB2A8"/>
<path d="M70.8034 129.441C70.5781 129.921 69.6532 130.662 68.574 130.81C67.5013 130.958 64.9815 130.774 64.8337 130.105C64.768 129.808 65.1654 128.557 65.6219 127.158C65.8354 127.881 66.9856 128.663 68.1358 128.177C69.2795 127.697 68.9832 123.405 70.1689 123.364C70.1748 123.767 70.1866 124.093 70.2103 124.289C70.2819 124.994 71.0228 128.96 70.8034 129.441Z" fill="#231547"/>
<path d="M55.3122 111.839C55.3122 111.839 54.9923 113.191 54.5653 114.922C54.1863 116.44 53.7298 118.253 53.3383 119.695C52.8226 121.58 52.301 123.127 51.9864 124.336C51.7788 125.095 51.6547 125.717 51.6547 126.215C51.6547 127.502 52.4961 128.587 51.6547 129.227C50.8184 129.873 42.1693 130.662 42.0208 129.227C41.873 127.798 42.9634 127.152 44.6411 126.464C44.8842 126.364 45.139 126.221 45.4116 126.049C47.0006 125.042 48.8977 122.943 49.236 121.722C49.485 120.82 49.6742 116.588 49.7812 113.565C49.8404 111.774 49.8758 110.405 49.8758 110.405L55.3122 111.839Z" fill="#FFB2A8"/>
<path d="M49.8758 110.405L55.3122 111.839C55.3122 111.839 54.9923 113.191 54.5653 114.922C52.8581 114.501 51.2336 114.033 49.7812 113.565C49.8404 111.774 49.8758 110.405 49.8758 110.405Z" fill="#F26173"/>
<path d="M71.7993 113.138C71.7993 113.138 71.26 114.904 70.8034 116.653C69.5166 116.677 68.0229 116.665 66.3984 116.593C66.292 114.886 66.2026 113.505 66.2026 113.505L71.7993 113.138Z" fill="#F26173"/>
<path d="M51.3426 73.3302C51.3426 73.3302 52.299 79.2585 51.7308 79.5547C51.1626 79.851 50.5944 78.1714 50.3474 78.6653C50.1004 79.1599 49.9277 82.0495 49.5322 82.2472C49.1368 82.4449 48.5193 81.8025 48.2973 80.6662C48.0746 79.5304 48.4037 77.5539 48.56 77.0107C48.717 76.4674 49.458 74.3674 49.458 73.6022C49.458 72.8363 51.1455 71.9975 51.3426 73.3302Z" fill="#FFB2A8"/>
<path d="M53.781 66.3641C53.781 66.3641 52.3976 73.8984 52.1014 74.1204C51.8051 74.3431 49.1231 74.1697 48.9326 73.6757C48.7421 73.1818 49.6065 65.7224 49.6065 65.7224L53.781 66.3641Z" fill="#41277A"/>
<path d="M90.6111 53.6681C90.6111 53.6681 92.8839 54.8045 93.9461 55.0016C95.0083 55.1993 97.4539 54.3841 97.5274 55.0016C97.6017 55.619 95.4031 55.8667 96.0455 56.2615C96.6879 56.6569 97.9229 57.0766 98.9358 57.2993C99.9487 57.5213 100.196 57.5956 100.22 57.9411C100.245 58.2872 98.8616 60.8313 98.1699 60.7078C97.4782 60.5843 93.2051 58.7319 92.3157 57.991C91.4263 57.2494 89.7716 56.4592 89.7716 56.4592L90.6111 53.6681Z" fill="#FFB2A8"/>
<path d="M85.3745 50.3824C85.4901 50.5197 87.4739 51.618 88.7338 52.3832C89.9937 53.1491 91.649 53.5688 91.6733 53.8658C91.6983 54.162 90.7839 57.472 90.2656 57.5705C89.7467 57.6697 84.238 55.2734 83.5463 54.3098C82.8546 53.3468 84.8312 49.7406 85.3745 50.3824Z" fill="#41277A"/>
<path d="M76.5066 112.954C76.3581 115.029 74.2837 114.139 72.428 114.803C70.5782 115.468 65.6102 114.874 65.2424 114.803C64.8752 114.732 65.9065 109.836 65.9065 107.245C65.9065 104.654 66.0608 92.7202 65.9065 91.0905C65.7646 89.4601 63.612 77.0874 63.612 77.0874C63.612 77.0874 59.8355 90.942 59.5393 92.7977C59.243 94.6474 58.573 111.394 58.4962 113.025C58.443 114.276 56.6878 114.519 54.7079 113.867C54.1029 113.671 53.4749 113.392 52.864 113.025C50.2733 111.472 49.0108 111.987 48.6429 111.768C48.2757 111.543 49.2361 108.65 49.5323 104.204C49.8286 99.7572 53.6819 76.4174 54.6429 72.4164C55.6092 68.4147 58.4962 61.0039 58.4962 61.0039L71.9123 60.263C71.9123 60.263 74.8762 65.5987 75.4694 71.0823C76.0619 76.5658 74.8762 88.2745 74.5799 92.3471C74.2837 96.4256 76.655 110.879 76.5066 112.954Z" fill="#41277A"/>
<path d="M84.5101 54.4714C83.6206 55.4968 82.5834 54.1863 80.7277 53.7423C78.8779 53.2976 73.4711 49.5922 73.4711 49.5922C73.4711 49.5922 73.4416 50.0192 73.3825 50.701C73.3168 51.5188 73.2163 52.7103 73.098 53.9676C72.9673 55.3542 73.3168 57.1449 73.6137 58.544L73.6196 58.5499V58.5558C73.8153 59.4689 73.9868 60.2098 73.9868 60.5593C73.9868 61.4487 72.0602 61.3009 70.4298 61.8165C68.7994 62.3381 65.7646 62.5634 63.9089 61.9702C62.9295 61.6576 61.3937 61.9426 60.0536 62.227C58.8548 62.4819 57.8117 62.7368 57.4649 62.5634C56.7173 62.1896 57.2396 60.263 57.3874 58.9296C57.5358 57.5955 57.0911 55.1526 56.8717 54.8563L56.8303 54.88C56.4861 55.5263 54.773 65.8654 54.275 66.7844C53.7535 67.7447 50.8665 67.306 49.9002 66.7844C48.9392 66.2628 49.0876 63.82 48.9392 61.8165C48.7914 59.8183 51.0852 49.1475 52.4969 45.5905C53.9072 42.0336 60.5713 41.5889 60.5713 41.5889C60.5713 41.5889 64.5789 47.885 65.3908 48.1103C66.2027 48.3356 67.3411 41.5889 67.3411 41.5889C67.3411 41.5889 73.5421 42.5492 76.1387 43.4386C78.7295 44.328 85.4704 49.8175 85.6957 50.5525C85.921 51.2994 85.3995 53.4454 84.5101 54.4714Z" fill="#FC4254"/>
<path d="M56.8684 55.1499C56.7147 55.1499 56.5846 55.031 56.5735 54.8747L56.2023 49.7616C56.1905 49.5987 56.3133 49.4568 56.4769 49.445C56.6398 49.4352 56.7817 49.5554 56.7935 49.7189L57.164 54.832C57.1758 54.9955 57.0536 55.1374 56.8901 55.1492L56.8684 55.1499Z" fill="#BA153D"/>
<path d="M73.4685 49.8884C73.3686 49.8884 73.2707 49.8378 73.2149 49.7459L71.7323 47.3004C71.6476 47.1604 71.6929 46.9778 71.8322 46.8931C71.9734 46.809 72.1547 46.853 72.2394 46.9929L73.722 49.4385C73.8068 49.5784 73.7614 49.761 73.6222 49.8457L73.4685 49.8884Z" fill="#BA153D"/>
<path d="M57.4648 62.5635C57.1686 62.415 57.0714 62.0229 57.072 61.5204C57.0727 60.7551 57.298 59.7343 57.3873 58.9297C57.4077 58.7444 57.4169 58.5382 57.4169 58.3194C57.4169 57.1982 57.1745 55.7452 56.984 55.1271C57.0976 55.0791 57.1738 54.9622 57.164 54.8321L56.9275 51.5629C56.9925 51.5997 57.07 51.6811 57.162 51.8151C57.162 51.8151 58.9468 55.3721 62.3494 55.5205C62.463 55.5258 62.5734 55.5278 62.6798 55.5278C64.1742 55.5278 65.0032 55.062 65.5655 54.5957C66.1278 54.1293 66.4234 53.6629 66.8523 53.6629C66.8839 53.6629 66.9167 53.6655 66.9502 53.6708C67.3982 53.7371 68.1136 53.8659 68.9104 53.8659C69.8215 53.8659 70.839 53.6977 71.687 53.0783C72.6237 52.3965 73.1216 51.4066 73.3824 50.7011C73.3167 51.5189 73.2162 52.7104 73.098 53.9677C73.0783 54.1733 73.0697 54.3881 73.0697 54.6095C73.0697 55.8772 73.3607 57.3525 73.6136 58.5441C73.5243 58.4193 72.8372 57.4353 72.2086 57.2993C71.9747 57.2474 70.9651 57.2139 69.6336 57.2139C67.1493 57.2139 63.5436 57.3309 61.7569 57.6665C59.0177 58.1881 57.4648 59.8184 57.4648 62.5635Z" fill="#CA2043"/>
<path d="M56.984 55.127C56.9432 54.9949 56.9045 54.901 56.8716 54.8563L56.8303 54.88C56.7146 54.0385 56.4217 51.5391 56.8493 51.5391C56.873 51.5391 56.8992 51.547 56.9275 51.5628L57.1639 54.832C57.1738 54.9621 57.0976 55.079 56.984 55.127Z" fill="#BA153D"/>
<path d="M63.6119 77.0875C63.6119 77.0875 59.8355 90.9422 59.5393 92.7978C59.243 94.6476 58.573 111.394 58.4961 113.025C58.4429 114.276 56.6877 114.519 54.7079 113.867C56.0236 107.026 56.5577 93.5565 56.6227 92.8688C56.6995 92.0805 56.0532 91.3869 56.6227 90.6932C57.1975 90.0055 61.389 76.4655 61.2169 75.4394C61.1756 75.2141 61.0396 75.0072 60.8438 74.8174C60.4523 74.4495 60.6835 73.7973 61.2228 73.7973H63.1679L63.6119 77.0875Z" fill="#231547"/>
<path d="M51.6547 129.227C50.8184 129.873 42.1693 130.662 42.0208 129.227C41.873 127.798 42.9634 127.152 44.6411 126.464C44.8842 126.364 45.139 126.221 45.4116 126.049C46.2774 126.298 47.5702 126.571 48.6606 126.435C50.3619 126.233 49.9711 124.075 51.9864 124.336C51.7788 125.095 51.6547 125.717 51.6547 126.215C51.6547 127.502 52.4961 128.587 51.6547 129.227Z" fill="#231547"/>
<path d="M62.9827 37.1058C62.9827 37.1058 63.9089 38.1804 64.7976 38.5134C65.6871 38.8471 66.5022 38.9214 66.5022 38.9214V41.0332C66.5022 41.0332 63.3157 39.3286 62.9827 37.1058Z" fill="#F26173"/>
<path d="M56.6246 35.6055C56.5477 35.6055 56.4729 35.5654 56.4321 35.4945C53.6273 30.6409 59.1694 26.1932 59.2259 26.1492C59.3231 26.073 59.4617 26.0894 59.5379 26.186C59.6141 26.2825 59.5977 26.4218 59.5011 26.498C59.4479 26.54 54.206 30.7532 56.8171 35.2718C56.8782 35.3782 56.842 35.5142 56.7356 35.5753L56.6246 35.6055Z" fill="#231547"/>
<path d="M228.49 30.8538H166.754C165.303 30.8538 164.126 32.0302 164.126 33.4812V126.043C164.126 127.494 165.303 128.671 166.754 128.671H228.49C229.941 128.671 231.118 127.494 231.118 126.043V33.4812C231.118 32.0302 229.941 30.8538 228.49 30.8538Z" fill="#EFEFEF"/>
<path d="M190.662 57.0122H173.409C172.32 57.0122 171.438 57.8944 171.438 58.9828V76.2354C171.438 77.3239 172.32 78.2061 173.409 78.2061H190.662C191.75 78.2061 192.632 77.3239 192.632 76.2354V58.9828C192.632 57.8944 191.75 57.0122 190.662 57.0122Z" fill="white"/>
<path d="M171.438 41.9692H224.646C224.973 41.9692 225.239 41.7039 225.239 41.3761C225.239 41.049 224.973 40.7836 224.646 40.7836H171.438C171.11 40.7836 170.845 41.049 170.845 41.3761C170.845 41.7039 171.11 41.9692 171.438 41.9692Z" fill="#BAB4A8"/>
<path d="M224.646 49.528H171.438C171.11 49.528 170.845 49.7933 170.845 50.1205C170.845 50.4482 171.11 50.7136 171.438 50.7136H224.646C224.973 50.7136 225.239 50.4482 225.239 50.1205C225.239 49.7933 224.973 49.528 224.646 49.528Z" fill="#BAB4A8"/>
<path d="M224.645 58.2721H198.042C197.714 58.2721 197.449 58.5375 197.449 58.8646C197.449 59.1924 197.714 59.4578 198.042 59.4578H224.645C224.973 59.4578 225.239 59.1924 225.239 58.8646C225.239 58.5375 224.973 58.2721 224.645 58.2721Z" fill="#BAB4A8"/>
<path d="M224.645 67.0163H198.042C197.714 67.0163 197.449 67.2816 197.449 67.6088C197.449 67.9365 197.714 68.2019 198.042 68.2019H224.645C224.973 68.2019 225.239 67.9365 225.239 67.6088C225.239 67.2816 224.973 67.0163 224.645 67.0163Z" fill="#BAB4A8"/>
<path d="M224.645 75.7606H198.042C197.714 75.7606 197.449 76.026 197.449 76.3531C197.449 76.6809 197.714 76.9463 198.042 76.9463H224.645C224.973 76.9463 225.239 76.6809 225.239 76.3531C225.239 76.026 224.973 75.7606 224.645 75.7606Z" fill="#BAB4A8"/>
<path d="M224.646 84.5048H171.438C171.11 84.5048 170.845 84.7702 170.845 85.0973C170.845 85.4251 171.11 85.6904 171.438 85.6904H224.646C224.973 85.6904 225.239 85.4251 225.239 85.0973C225.239 84.7702 224.973 84.5048 224.646 84.5048Z" fill="#BAB4A8"/>
<path d="M224.646 93.2489H171.438C171.11 93.2489 170.845 93.5136 170.845 93.8414C170.845 94.1692 171.11 94.4346 171.438 94.4346H224.646C224.973 94.4346 225.239 94.1692 225.239 93.8414C225.239 93.5136 224.973 93.2489 224.646 93.2489Z" fill="#BAB4A8"/>
<path d="M209.973 101.252H171.438C171.11 101.252 170.845 101.517 170.845 101.845C170.845 102.173 171.11 102.438 171.438 102.438H209.973C210.3 102.438 210.566 102.173 210.566 101.845C210.566 101.517 210.3 101.252 209.973 101.252Z" fill="#BAB4A8"/>
<path d="M196.122 117.509L192.838 108.84C192.724 108.538 192.389 108.383 192.085 108.491L176.911 113.871C176.593 113.983 176.433 114.337 176.558 114.65L179.972 123.185C180.09 123.479 180.418 123.629 180.718 123.524L195.762 118.279C196.078 118.169 196.24 117.821 196.122 117.509Z" fill="white"/>
<path d="M180.858 30.7829C180.734 33.3854 180.147 35.0512 179.05 35.8749C178.7 36.1357 178.35 36.231 178.025 36.231C177.295 36.231 176.667 35.7449 176.412 35.5432C176.151 35.3475 176.104 34.9737 176.305 34.7129C176.506 34.4581 176.88 34.4108 177.135 34.6124C177.876 35.1813 178.125 35.0867 178.339 34.9264C179.122 34.3339 179.571 32.923 179.673 30.729C179.732 29.4488 179.602 27.8598 178.635 27.5695C178.297 27.4631 178.119 27.5518 178.001 27.6345C177.343 28.1206 177.082 29.8639 177.07 30.8538H175.884V30.8479C175.884 30.528 175.949 27.67 177.295 26.6801C177.781 26.3306 178.362 26.2413 178.985 26.4311C180.343 26.8463 180.971 28.3104 180.858 30.7829Z" fill="#41277A"/>
<path d="M192.875 30.7829C192.756 33.3854 192.164 35.0512 191.067 35.8749C190.723 36.1357 190.373 36.231 190.047 36.231C189.312 36.231 188.69 35.7449 188.429 35.5432C188.168 35.3475 188.121 34.9737 188.322 34.7129C188.523 34.4581 188.897 34.4108 189.158 34.6124C189.893 35.1813 190.148 35.0867 190.355 34.9264C191.138 34.3339 191.588 32.923 191.69 30.729C191.749 29.4488 191.618 27.8598 190.658 27.5695C190.314 27.4631 190.136 27.5518 190.018 27.6345C189.36 28.1206 189.099 29.8639 189.087 30.8538H187.901V30.8479C187.907 30.528 187.966 27.67 189.318 26.6801C189.798 26.3306 190.379 26.2413 191.002 26.4311C192.36 26.8463 192.988 28.3104 192.875 30.7829Z" fill="#41277A"/>
<path d="M204.892 30.7829C204.773 33.3854 204.187 35.0512 203.09 35.8749C202.74 36.1357 202.39 36.231 202.064 36.231C201.329 36.231 200.707 35.7449 200.446 35.5432C200.191 35.3475 200.143 34.9737 200.345 34.7129C200.546 34.4581 200.92 34.4108 201.175 34.6124C201.916 35.1813 202.165 35.0867 202.378 34.9264C203.161 34.3339 203.611 32.923 203.713 30.729C203.772 29.4488 203.635 27.8598 202.675 27.5695C202.337 27.4631 202.159 27.5518 202.04 27.6345C201.377 28.1206 201.116 29.8639 201.11 30.8538H199.924V30.8479C199.924 30.528 199.989 27.67 201.335 26.6801C201.815 26.3306 202.402 26.2413 203.025 26.4311C204.382 26.8463 205.011 28.3104 204.892 30.7829Z" fill="#41277A"/>
<path d="M216.915 30.7829C216.796 33.3854 216.203 35.0512 215.107 35.8749C214.763 36.1357 214.413 36.231 214.081 36.231C213.352 36.231 212.724 35.7449 212.469 35.5432C212.208 35.3475 212.16 34.9737 212.362 34.7129C212.563 34.4581 212.937 34.4108 213.192 34.6124C213.933 35.1813 214.182 35.0867 214.395 34.9264C214.864 34.5711 215.213 33.9306 215.433 32.9998C215.581 32.4008 215.676 31.6894 215.723 30.8538L215.729 30.729C215.789 29.4488 215.658 27.8598 214.698 27.5695C214.354 27.4631 214.176 27.5518 214.057 27.6345C213.4 28.1206 213.138 29.8639 213.126 30.8538H211.941V30.8479C211.947 30.528 212.006 27.67 213.358 26.6801C213.838 26.3306 214.419 26.2413 215.041 26.4311C216.399 26.8463 217.028 28.3104 216.915 30.7829Z" fill="#41277A"/>
<path d="M257.258 57.0274C257.258 57.2882 257.216 57.5549 257.115 57.8156L255.497 62.1372L242.366 97.1614L240.819 101.288L237.243 99.7462L238.66 95.8102L251.383 60.4418L252.889 56.2621C253.327 55.0292 254.72 54.4367 255.918 54.9642C256.754 55.3373 257.258 56.1616 257.258 57.0274Z" fill="#FC4254"/>
<path d="M255.918 54.9642C254.72 54.4367 253.327 55.0292 252.889 56.2622L251.383 60.4418L255.497 62.1372L257.115 57.8157C257.216 57.5549 257.258 57.2882 257.258 57.0274C257.258 56.1617 256.754 55.3373 255.918 54.9642Z" fill="#41277A"/>
<path d="M256.186 60.2992C256.186 60.2992 258.882 60.7163 258.981 62.1371C259.08 63.5579 251.472 81.0464 250.681 81.0464C249.891 81.0464 251.274 75.7113 252.311 72.7961C253.349 69.8816 256.56 61.7798 256.56 61.7798L255.79 61.3548L256.186 60.2992Z" fill="#41277A"/>
<path d="M240.819 101.288L237.243 99.7462L238.66 95.8102L242.366 97.1614L240.819 101.288Z" fill="#CA2043"/>
<path d="M241.428 99.2501L237.582 98.0099C236.959 97.8089 236.29 98.1518 236.09 98.7752L232.29 110.588C232.082 111.233 232.458 111.921 233.113 112.096L236.77 113.071C237.371 113.232 237.993 112.9 238.196 112.313L242.184 100.766C242.401 100.138 242.059 99.4544 241.428 99.2501Z" fill="#41277A"/>
<path d="M247.396 115.072C247.396 112.514 241.805 110.441 234.909 110.441C228.013 110.441 222.423 112.514 222.423 115.072C222.423 117.63 228.013 119.704 234.909 119.704C241.805 119.704 247.396 117.63 247.396 115.072Z" fill="#634C47"/>
<path d="M247.564 115.702H221.587C220.862 115.702 220.273 116.291 220.273 117.016V127.357C220.273 128.082 220.862 128.671 221.587 128.671H247.564C248.29 128.671 248.878 128.082 248.878 127.357V117.016C248.878 116.291 248.29 115.702 247.564 115.702Z" fill="#A06352"/>
<path d="M151.477 133.117H12.8529C12.5255 133.117 12.2599 132.852 12.2599 132.524C12.2599 132.196 12.5255 131.931 12.8529 131.931H151.477C151.805 131.931 152.07 132.196 152.07 132.524C152.07 132.852 151.805 133.117 151.477 133.117Z" fill="#E5E3E1"/>
<path d="M234.576 133.117H160.569C160.242 133.117 159.977 132.852 159.977 132.524C159.977 132.196 160.242 131.931 160.569 131.931H234.576C234.903 131.931 235.169 132.196 235.169 132.524C235.169 132.852 234.903 133.117 234.576 133.117Z" fill="#E5E3E1"/>
<path d="M208.787 138.452H61.6143C61.2865 138.452 61.0211 138.187 61.0211 137.86C61.0211 137.532 61.2865 137.266 61.6143 137.266H208.787C209.115 137.266 209.38 137.532 209.38 137.86C209.38 138.187 209.115 138.452 208.787 138.452Z" fill="#E5E3E1"/>
<path d="M46.0495 75.2751H17.1624C17.1624 75.2751 20.268 70.6909 25.2883 74.1742C31.9674 66.2136 39.2849 68.2907 39.2849 72.8677C46.0068 69.1492 46.9849 73.0635 46.0495 75.2751Z" fill="#E5E3E1"/>
</g>
<defs>
<clipPath id="clip0_921_20924">
<rect width="270" height="138.412" fill="white" transform="translate(0 0.200195)"/>
</clipPath>
</defs>
</svg>
